<svg width="2464" height="604" viewBox="0 0 2464 604" fill="none" xmlns="http://www.w3.org/2000/svg">
<g clip-path="url(#clip0_513_231)">
<path d="M381.149 80.9957C394.585 85.9534 407.576 92.1703 419.959 99.5502C420.611 99.9725 421.316 100.4 422.139 100.846C423.342 101.582 424.531 102.342 425.722 103.098C434.889 109.822 433.253 117.838 430.37 123.284L425.764 129.613L409.523 151.948C401.379 163.14 389.797 154.897 389.797 154.897V154.913C381.4 149.762 372.606 145.354 363.513 141.738L363.517 141.736C363.517 141.736 363.503 141.73 363.472 141.721C363.108 141.576 362.739 141.435 362.37 141.292C358.897 139.752 348.984 133.706 354.011 116.284L361.304 91.0154C363.759 82.507 372.878 77.9426 381.149 80.9957ZM222.779 148.343C221.118 149.192 219.466 150.069 217.823 150.978C207.085 156.918 197.238 163.85 188.32 171.592C184.461 174.942 178.645 174.593 175.111 170.899L144.998 139.413C141.208 135.45 141.395 129.075 145.498 125.44C158.147 114.232 172.195 104.229 187.582 95.7157C188.514 95.2009 189.453 94.7033 190.39 94.2017C203.909 87.3446 208.071 92.202 209.238 94.6373C209.353 95.028 209.487 95.4161 209.655 95.7989L227.245 135.743C229.329 140.472 227.365 146.004 222.779 148.343ZM333.908 185.945C332.401 191.164 335.117 196.66 340.16 198.617C346.133 200.938 351.914 203.782 357.431 207.13C362.101 209.964 368.133 208.851 371.354 204.424L395.243 171.58C401.131 163.484 409.46 169.125 411.232 170.472C420.716 178.548 429.425 187.736 437.128 198.005C440.442 202.422 446.63 203.433 451.198 200.352L477.995 182.299H477.997C495.291 170.646 505.542 188.471 505.542 188.471C513.955 203.844 520.468 219.752 525.179 235.922C526.75 241.316 532.204 244.562 537.631 243.217L581.849 232.271C587.549 230.861 591.014 224.985 589.404 219.31C583.318 197.848 574.766 176.733 563.61 156.35C561.124 151.806 558.531 147.356 555.846 142.999C552.724 137.93 546.073 136.432 541.146 139.752L512.265 159.21C497.083 169.604 489.809 163.269 487.73 160.742C487.577 160.537 487.421 160.336 487.267 160.133C487.14 159.947 487.078 159.836 487.078 159.836L487.057 159.855C477.483 147.113 466.789 135.575 455.19 125.301L455.222 125.297C441.75 112.115 447.958 99.5172 450.731 95.288L451.819 93.7912L451.821 93.7899L469.035 70.1232C473.898 63.4364 472.22 53.9975 465.33 49.4555C440.176 32.8743 412.776 20.2464 384.137 11.8911C354.578 3.26791 323.707 -0.798852 292.651 -0.0108434C285.797 0.16339 280.44 5.98832 280.905 12.8652L283.725 54.6033C284.186 61.409 279.269 67.3857 272.534 68.1974C254.596 70.3529 236.729 74.6652 219.277 81.1752C219.109 81.2293 218.96 81.2702 218.784 81.3309C208.143 84.9027 203.26 80.0902 201.228 76.6609L199.948 73.7544L184.429 38.5145C181.316 31.4461 172.958 28.3733 166.081 31.8276C162.577 33.5858 159.093 35.4205 155.633 37.3344C131.975 50.4217 110.782 66.2558 92.1941 84.2044C-3.42875 176.536 -29.7006 325.163 37.2558 447.513C117.227 593.646 299.886 646.931 445.234 566.528C511.512 529.865 558.586 471.736 582.609 405.486C586.378 395.093 580.592 383.658 570.024 380.576L422.897 337.655C413.891 335.029 404.471 339.568 400.566 348.137C390.602 370.011 373.483 388.832 350.342 400.678C298.342 427.298 233.836 407.918 204.845 357.002C179.115 311.816 188.55 256.363 224.059 222.076C230.877 215.493 238.649 209.685 247.324 204.886C250.125 203.338 252.964 201.932 255.832 200.65C264.204 196.913 272.832 194.311 281.534 192.786C288.048 191.646 292.575 185.62 292.127 178.989L289.55 140.841C289.142 134.794 293.898 129.63 299.926 129.617C310.673 129.592 321.362 130.59 331.852 132.559C332.822 132.777 348.181 136.48 343.535 152.58L333.908 185.945Z" fill="#36E7B2"/>
</g>
<g clip-path="url(#clip1_513_231)">
<path d="M1028.4 400.097C1002.93 425.498 972.122 438.189 935.965 438.189C899.811 438.189 868.998 425.498 843.531 400.097C818.063 374.699 805.333 343.971 805.333 307.913C805.333 271.859 818.063 241.134 843.531 215.737C868.998 190.339 899.811 177.64 935.965 177.64C972.122 177.64 1002.93 190.339 1028.4 215.737L1028.69 216.026L989.035 255.574L988.745 255.281C975.941 242.476 958.903 234.572 940.795 233.605C915.441 232.255 894.455 241.424 877.828 261.114C868.745 271.87 863.069 285.166 861.742 299.166C859.268 325.246 867.638 346.856 886.845 363.995C898.94 374.794 914.449 381.254 930.653 382.2C953.562 383.538 972.927 376.323 988.745 360.549L989.035 360.259L1028.69 399.807L1028.4 400.097Z" fill="white"/>
<path d="M1230.25 255.288C1213.65 238.736 1193.14 231.606 1168.74 233.9C1154.6 235.228 1141.17 240.987 1130.32 250.141C1122.99 256.325 1117.21 263.03 1113 270.248C1112.89 270.446 1113.04 270.699 1113.27 270.699H1241.68C1241.91 270.699 1242.06 270.446 1241.95 270.248C1238.87 264.988 1234.97 260.002 1230.25 255.288ZM1124.7 360.555C1140.33 376.142 1159.42 383.372 1181.98 382.254C1200.23 381.344 1217.41 373.36 1230.33 360.474C1230.45 360.357 1230.64 360.357 1230.76 360.474L1270.2 399.813L1269.91 400.103C1244.44 425.501 1213.63 438.196 1177.48 438.196C1141.32 438.196 1110.51 425.501 1085.04 400.103C1059.57 374.705 1046.84 343.978 1046.84 307.919C1046.84 271.861 1059.57 241.141 1085.04 215.743C1110.51 190.346 1141.32 177.647 1177.48 177.647C1213.63 177.647 1244.44 190.346 1269.91 215.743C1295.37 241.141 1308.11 271.861 1308.11 307.919C1308.11 314.045 1307.54 320.164 1306.41 326.282C1306.38 326.425 1306.25 326.535 1306.11 326.535H1289.45H1105.55C1105.35 326.535 1105.21 326.718 1105.25 326.909C1108.4 339.549 1114.88 350.767 1124.7 360.555Z" fill="white"/>
<path d="M1345.43 307.92C1345.43 271.862 1358.16 241.137 1383.63 215.74C1408.27 191.171 1437.91 178.487 1472.55 177.687C1474.48 177.643 1476.06 179.223 1476.06 181.144V230.099C1476.06 231.976 1474.56 233.468 1472.68 233.545C1456.79 234.176 1442.75 239.268 1430.56 248.832C1411.79 263.555 1401.42 286.518 1401.42 310.336V434.75C1401.42 436.649 1399.87 438.192 1397.96 438.192H1348.89C1346.98 438.192 1345.43 436.649 1345.43 434.75V307.92Z" fill="white"/>
<path d="M2057.04 181.133C2057.04 179.226 2058.59 177.687 2060.5 177.687H2109.57C2111.48 177.687 2113.02 179.226 2113.02 181.133V305.547C2113.02 329.361 2123.4 352.321 2142.17 367.047C2154.36 376.607 2168.4 381.703 2184.28 382.334C2186.17 382.407 2187.67 383.906 2187.67 385.78V434.734C2187.67 436.659 2186.09 438.239 2184.16 438.191C2149.52 437.392 2119.88 424.705 2095.24 400.139C2069.77 374.741 2057.04 344.017 2057.04 307.959V181.133Z" fill="white"/>
<path d="M1716.7 400.099C1691.23 425.5 1660.42 438.192 1624.27 438.192C1588.11 438.192 1557.3 425.5 1531.83 400.099C1506.36 374.701 1493.63 343.974 1493.63 307.915C1493.63 271.861 1506.36 241.137 1531.83 215.739C1557.3 190.342 1588.11 177.643 1624.27 177.643C1660.42 177.643 1691.23 190.342 1716.7 215.739L1716.99 216.029L1677.34 255.577L1677.05 255.284C1664.24 242.479 1647.2 234.575 1629.1 233.607C1603.74 232.258 1582.76 241.426 1566.13 261.116C1557.05 271.872 1551.37 285.168 1550.04 299.169C1547.57 325.248 1555.94 346.859 1575.15 363.997C1587.24 374.797 1602.75 381.256 1618.95 382.202C1641.86 383.54 1661.23 376.325 1677.05 360.551L1677.34 360.261L1716.99 399.809L1716.7 400.099Z" fill="white"/>
<path d="M1810.88 307.919C1810.88 330.26 1819.5 349.044 1836.72 364.279C1849.06 375.193 1864.91 381.509 1881.38 382.265C1900.43 383.144 1917.01 378.038 1931.11 366.948C1949.83 352.222 1960.17 329.292 1960.17 305.515V181.126C1960.17 179.205 1961.74 177.647 1963.67 177.647H2012.67C2014.6 177.647 2016.16 179.205 2016.16 181.126V307.919C2016.16 343.978 2003.43 374.705 1977.96 400.103C1952.49 425.497 1921.69 438.192 1885.53 438.192C1849.37 438.192 1818.56 425.497 1793.09 400.103C1767.63 374.705 1754.9 343.978 1754.9 307.919V181.126C1754.9 179.205 1756.45 177.647 1758.38 177.647H1807.39C1809.32 177.647 1810.88 179.205 1810.88 181.126V307.919Z" fill="white"/>
<path d="M2324.68 233.864C2310.14 235.286 2297.23 240.62 2285.95 249.866C2266.41 265.871 2256.02 290.854 2258.48 315.955C2259.9 330.447 2265.25 343.321 2274.52 354.583C2290.58 374.071 2315.64 384.435 2340.81 381.975C2355.34 380.56 2368.25 375.226 2379.53 365.98C2399.08 349.968 2409.47 324.973 2407 299.865C2405.57 285.381 2400.23 272.51 2390.96 261.259C2374.9 241.768 2349.85 231.404 2324.68 233.864ZM2458.6 438.192H2412.17C2409.53 438.192 2407.39 436.062 2407.39 433.43V424.067C2407.39 420.365 2403.32 418.055 2400.16 419.991C2380.31 432.125 2357.83 438.192 2332.74 438.192C2296.58 438.192 2265.77 425.493 2240.31 400.103C2214.84 374.702 2202.11 343.978 2202.11 307.919C2202.11 271.861 2214.84 241.133 2240.31 215.743C2265.77 190.342 2296.58 177.647 2332.74 177.647C2368.9 177.647 2399.71 190.342 2425.17 215.743C2450.64 241.133 2463.37 271.861 2463.37 307.919V433.43C2463.37 436.062 2461.23 438.192 2458.6 438.192Z" fill="white"/>
</g>
<defs>
<clipPath id="clip0_513_231">
<rect width="592.157" height="604" fill="white"/>
</clipPath>
<clipPath id="clip1_513_231">
<rect width="1658.04" height="260.549" fill="white" transform="translate(805.333 177.647)"/>
</clipPath>
</defs>
</svg>
