
<svg width="125px" height="48px" viewBox="0 0 125 48" version="1.1" xmlns="http://www.w3.org/2000/svg" xmlns:xlink="http://www.w3.org/1999/xlink">
    <!-- Generator: Sketch 51.3 (57544) - http://www.bohemiancoding.com/sketch -->
    <desc>Created with Sketch.</desc>
    <defs></defs>
    <g id="IoT:-How-We-Built-Logicify-Connected-Office-with-a-Soldering-Iron" stroke="none" stroke-width="1" fill="none" fill-rule="evenodd">
        <g id="Artboard" transform="translate(-91.000000, -209.000000)">
            <g id="Group" transform="translate(92.000000, 209.000000)">
                <g id="company-logo">
                    <g id="Group-17">
                        <g id="Group-16" transform="translate(2.746165, 0.000000)" fill-rule="nonzero">
                            <g id="Group-51" transform="translate(10.620149, 36.999932) scale(-1, 1) translate(-10.620149, -36.999932) translate(1.620149, 25.999932)">
                                <polygon id="Path-6-Copy" fill="#63B3AE" transform="translate(12.309097, 5.406524) scale(-1, 1) translate(-12.309097, -5.406524) " points="10.0465641 10.8130483 10.4563764 0 13.5370728 0 14.5716296 9.85568976"></polygon>
                                <polygon id="Rectangle-11-Copy-5" fill="#63C49A" points="0.00468079776 8.25619733 6.15086082 6.13998854 6.15086082 20.821187 0.00468079776 21.0857132"></polygon>
                                <polygon id="Rectangle-11-Copy-4" fill="#7BDAB1" transform="translate(11.577807, 13.612851) scale(-1, 1) translate(-11.577807, -13.612851) " points="6.15086096 10.7691953 17.0047533 6.13998854 17.0047533 20.821187 6.15086096 21.0857132"></polygon>
                            </g>
                            <polygon id="Rectangle-11" fill="#1487C0" opacity="0.5" points="0 8.20030906 13.4692881 0 13.4692881 46.9533826 4.44617277 47.0856456 0 47.2179087"></polygon>
                            <polygon id="Rectangle-11-Copy-2" fill="#86C0DC" opacity="0.5" transform="translate(20.857782, 23.542823) scale(-1, 1) translate(-20.857782, -23.542823) " points="13.4692885 9.65520259 28.2462745 0 28.2462745 46.9533826 13.4692885 47.0856456"></polygon>
                            <g id="Group-53" opacity="0.5" transform="translate(19.486344, 19.651306)">
                                <polygon id="Rectangle-11-Copy" fill="#1487C0" points="0.129124195 3.09793841 8.75993015 0.0558882691 8.75993015 27.4343395 0.129124195 27.3020765"></polygon>
                                <polygon id="Rectangle-11-Copy-3" fill="#86C0DC" transform="translate(13.663798, 13.877377) scale(-1, 1) translate(-13.663798, -13.877377) " points="8.75993052 5.61093634 18.5676646 0.0558882691 18.5676646 27.3020765 8.75993052 27.6988656"></polygon>
                            </g>
                            <g id="Group-42" opacity="0.5" transform="translate(25.136433, 37.857873)">
                                <polygon id="Rectangle-9" fill="#63B3AE" points="2.41325982 4.02749199 3.88246578 4.02749199 4.42402339 9.29622571 1.8717022 9.16396267"></polygon>
                                <ellipse id="Oval" fill="#63C49A" cx="3.1478628" cy="3.7615625" rx="3.1478628" ry="3.7615625"></ellipse>
                            </g>
                            <g id="Group-42-Copy" opacity="0.5" transform="translate(10.878192, 39.719736)">
                                <polygon id="Rectangle-9" fill="#B1F2ED" points="1.88606026 2.89831082 3.1979573 2.89831082 3.68152996 7.03786339 1.4024876 7.03786339"></polygon>
                                <ellipse id="Oval" fill="#FFFFFF" cx="2.54200878" cy="2.95895983" rx="2.54200878" ry="2.95895983"></ellipse>
                            </g>
                            <g id="Group-42-Copy-3" opacity="0.5" transform="translate(4.745616, 42.202219)">
                                <polygon id="Rectangle-9" fill="#B1F2ED" points="1.18488298 2.21211063 2.14258761 2.21211063 2.49560294 4.83131227 0.831867648 4.83131227"></polygon>
                                <ellipse id="Oval" fill="#FFFFFF" cx="1.6637353" cy="2.00805457" rx="1.6637353" ry="2.00805457"></ellipse>
                            </g>
                            <g id="Group-42-Copy-4" opacity="0.5" transform="translate(32.802153, 41.891909)">
                                <polygon id="Rectangle-9" fill="#63B3AE" points="1.47059186 2.65338115 2.58791393 2.65338115 2.99976515 5.44475683 1.05874064 5.44475683"></polygon>
                                <ellipse id="Oval" fill="#63C49A" cx="2.0292529" cy="2.24010665" rx="2.0292529" ry="2.24010665"></ellipse>
                            </g>
                        </g>
                        <path d="M0,47.3501717 C7.3037026,46.9974703 14.5832208,46.8211195 21.8385545,46.8211195 C29.1261341,46.8211195 36.4056523,46.9974703 43.677109,47.3501717" id="Path-7-Copy-3" stroke="#74C1BA" stroke-width="1.10000002" stroke-linejoin="round"></path>
                    </g>
                </g>
                <path d="M66.8203125,46 L48.5146484,46 L48.5146484,13.1621094 L66.8203125,13.1621094 L66.8203125,16.5537109 L52.3330078,16.5537109 L52.3330078,27.1328125 L65.9443359,27.1328125 L65.9443359,30.5019531 L52.3330078,30.5019531 L52.3330078,42.5859375 L66.8203125,42.5859375 L66.8203125,46 Z M87.3282031,16.1044922 C83.7194611,16.1044922 80.8706941,17.3061403 78.7818164,19.7094727 C76.6929388,22.112805 75.6485156,25.4032994 75.6485156,29.5810547 C75.6485156,33.8786022 76.6555043,37.1990443 78.6695117,39.5424805 C80.6835192,41.8859167 83.554747,43.0576172 87.2832813,43.0576172 C89.5743083,43.0576172 92.1872379,42.6458375 95.1221485,41.8222656 L95.1221485,45.1689453 C92.8460954,46.0224652 90.0385063,46.4492188 86.6992969,46.4492188 C81.8626842,46.4492188 78.1304624,44.9817855 75.5025195,42.046875 C72.8745767,39.1119645 71.560625,34.9417588 71.560625,29.5361328 C71.560625,26.1520013 72.1932684,23.1871872 73.4585742,20.6416016 C74.72388,18.0960159 76.5506847,16.134447 78.939043,14.7568359 C81.3274013,13.3792249 84.1387338,12.6904297 87.373125,12.6904297 C90.8171527,12.6904297 93.8268882,13.3193296 96.4024219,14.5771484 L94.7852344,17.8564453 C92.2995449,16.6884707 89.8138927,16.1044922 87.3282031,16.1044922 Z" id="EC" stroke="#6AB1D5" stroke-width="0.5" fill="#6AB1D5"></path>
                <path d="M122.484375,21.1982422 C122.484375,23.2946068 121.896653,25.0091079 120.721191,26.3417969 C119.54573,27.6744858 117.879894,28.5654274 115.723633,29.0146484 L115.723633,29.1943359 C118.359063,29.5237647 120.313145,30.3622979 121.585938,31.7099609 C122.85873,33.0576239 123.495117,34.8245333 123.495117,37.0107422 C123.495117,40.1403151 122.409516,42.5473549 120.238281,44.2319336 C118.067046,45.9165123 114.982442,46.7587891 110.984375,46.7587891 C109.247387,46.7587891 107.65642,46.6277682 106.211426,46.3657227 C104.766432,46.1036771 103.362637,45.6432325 102,44.984375 L102,41.4355469 C103.422533,42.1393264 104.938631,42.6746401 106.54834,43.0415039 C108.158048,43.4083677 109.681633,43.5917969 111.119141,43.5917969 C116.794299,43.5917969 119.631836,41.3681863 119.631836,36.9208984 C119.631836,32.9378056 116.50231,30.9462891 110.243164,30.9462891 L107.008789,30.9462891 L107.008789,27.734375 L110.288086,27.734375 C112.848646,27.734375 114.877597,27.1691137 116.375,26.0385742 C117.872403,24.9080347 118.621094,23.3395283 118.621094,21.3330078 C118.621094,19.7307863 118.070806,18.4729863 116.970215,17.5595703 C115.869623,16.6461543 114.375986,16.1894531 112.489258,16.1894531 C111.051751,16.1894531 109.696621,16.3841126 108.423828,16.7734375 C107.151035,17.1627624 105.698576,17.8815052 104.066406,18.9296875 L102.179688,16.4140625 C103.52735,15.3509061 105.080883,14.5161163 106.840332,13.909668 C108.599781,13.3032196 110.45279,13 112.399414,13 C115.588883,13 118.067048,13.7299732 119.833984,15.1899414 C121.60092,16.6499096 122.484375,18.6526565 122.484375,21.1982422 Z" id="3" stroke="#74C1BA" stroke-width="0.5" fill="#74C1BA"></path>
            </g>
        </g>
    </g>
</svg>